HIERARCHY
ROOT Hips
{
	OFFSET 0.000000 0.000000 0.000000 
	CHANNELS 6 Xposition Yposition Zposition Zrotation Yrotation Xrotation
	JOINT LeftUpLeg
	{
		OFFSET 1.363060 -1.794630 0.839290 
		CHANNELS 3 Zrotation Yrotation Xrotation
		JOINT LeftLeg
		{
			OFFSET 2.448110 -6.726130 0.000000 
			CHANNELS 3 Zrotation Yrotation Xrotation
			JOINT LeftFoot
			{
				OFFSET 2.562200 -7.039590 0.000000 
				CHANNELS 3 Zrotation Yrotation Xrotation
				JOINT LeftToeBase
				{
					OFFSET 0.157640 -0.433110 2.322550 
					CHANNELS 3 Zrotation Yrotation Xrotation
					End Site
					{
						OFFSET 0.000000 0.000000 0.000000 
					}
				}
			}
		}
	}
	JOINT RightUpLeg
	{
		OFFSET -1.305520 -1.794630 0.839290 
		CHANNELS 3 Zrotation Yrotation Xrotation
		JOINT RightLeg
		{
			OFFSET -2.542530 -6.985550 0.000000 
			CHANNELS 3 Zrotation Yrotation Xrotation
			JOINT RightFoot
			{
				OFFSET -2.568260 -7.056230 0.000000 
				CHANNELS 3 Zrotation Yrotation Xrotation
				JOINT RightToeBase
				{
					OFFSET -0.164730 -0.452590 2.363150 
					CHANNELS 3 Zrotation Yrotation Xrotation
					End Site
					{
						OFFSET 0.000000 0.000000 0.000000 
					}
				}
			}
		}
	}
	JOINT Spine
	{
		OFFSET 0.028270 2.035590 -0.193380 
		CHANNELS 3 Zrotation Yrotation Xrotation
		JOINT Spine1
		{
			OFFSET 0.056720 2.048850 -0.042750 
			CHANNELS 3 Zrotation Yrotation Xrotation
			JOINT Neck1
			{
				OFFSET -0.054170 1.746240 0.172020 
				CHANNELS 3 Zrotation Yrotation Xrotation
				JOINT Head
				{
					OFFSET 0.104070 1.761360 -0.123970 
					CHANNELS 3 Zrotation Yrotation Xrotation
					End Site
					{
						OFFSET 0.000000 0.000000 0.000000 
					}
				}
			}
			JOINT LeftArm
			{
				OFFSET 3.362410 1.200890 -0.311210 
				CHANNELS 3 Zrotation Yrotation Xrotation
				JOINT LeftForeArm
				{
					OFFSET 4.983000 -0.000000 -0.000000 
					CHANNELS 3 Zrotation Yrotation Xrotation
					JOINT LeftHand
					{
						OFFSET 3.483560 -0.000000 -0.000000 
						CHANNELS 3 Zrotation Yrotation Xrotation
						JOINT LeftHandIndex1
						{
							OFFSET 0.715260 -0.000000 -0.000000 
							CHANNELS 3 Zrotation Yrotation Xrotation
							End Site
							{
								OFFSET 0.000000 0.000000 0.000000 
							}
						}
					}
				}
			}
			JOINT RightArm
			{
				OFFSET -3.136600 1.374050 -0.404650 
				CHANNELS 3 Zrotation Yrotation Xrotation
				JOINT RightForeArm
				{
					OFFSET -5.241900 -0.000000 -0.000000 
					CHANNELS 3 Zrotation Yrotation Xrotation
					JOINT RightHand
					{
						OFFSET -3.444170 -0.000000 -0.000000 
						CHANNELS 3 Zrotation Yrotation Xrotation
						JOINT RightHandIndex1
						{
							OFFSET -0.622530 -0.000000 -0.000000 
							CHANNELS 3 Zrotation Yrotation Xrotation
							End Site
							{
								OFFSET 0.000000 0.000000 0.000000 
							}
						}
					}
				}
			}
		}
	}
}
MOTION
Frames: 6
Frame Time: 0.041667
3.888997 17.930711 2.799525 -27.918776 -84.038947 40.652750 -12.123470 -12.422777 -25.320028 1.762279 7.922106 27.365549 0.827410 -1.806402 -3.630823 0.330100 -3.692500 -10.213100 21.016539 10.318674 -25.042202 -2.169291 -8.514920 29.409328 3.285957 -11.604325 -5.193434 -0.071500 -1.725700 4.748100 11.047006 2.268055 5.934196 1.335929 1.625472 -4.368081 0.641662 4.809558 8.752949 0.175600 2.286700 5.984200 -87.227478 -0.489915 25.128577 18.899484 -25.694304 -4.048304 0.160092 0.383145 -2.773647 -7.125000 0.000000 0.000000 76.870550 -1.075659 10.062870 -17.401898 24.850948 -4.062057 0.198318 -0.271779 -0.089129 7.125000 0.000000 0.000000 
3.883967 17.930711 2.809191 -28.078343 -84.114584 40.720051 -12.199245 -12.646123 -24.963545 1.726217 7.837964 27.163165 0.743697 -1.617785 -3.019614 0.166400 -2.627800 -7.244100 20.971693 10.114550 -24.973637 -2.147463 -8.503298 29.342814 3.195808 -11.355054 -5.117641 -0.080900 -1.834500 5.048500 11.098131 2.259070 5.934419 1.269428 1.616263 -4.351435 0.764181 4.782643 8.855937 0.238700 2.271700 6.011300 -87.354246 -0.468512 25.054428 18.841814 -25.622759 -4.024790 0.160088 0.383536 -2.570441 -7.125000 0.000000 0.000000 76.719287 -1.039841 10.211071 -17.383113 24.824225 -4.053957 0.202821 -0.272766 -0.288532 7.125000 0.000000 0.000000 
3.869961 17.931895 2.798638 -30.977510 -84.004984 43.515894 -11.846913 -12.852714 -24.637160 1.688759 7.783291 26.979989 0.584477 -1.090291 -2.472062 0.059300 -1.571300 -4.322400 21.272873 10.297138 -24.709702 -2.138983 -8.468631 29.283812 3.213887 -11.414412 -5.259574 -0.087600 -1.908500 5.253000 11.524369 2.263206 5.813161 1.251890 1.615516 -4.291759 0.765831 4.800725 9.000737 0.248200 2.279700 6.049500 -87.416007 -0.346236 24.973713 18.809711 -25.574561 -4.009754 0.157453 0.383343 -2.485106 -7.125000 0.000000 0.000000 76.701968 -1.035460 10.160637 -17.357386 24.792075 -4.043053 0.199925 -0.274203 -0.036933 7.125000 0.000000 0.000000 
3.858323 17.930514 2.794397 -33.833861 -83.881634 46.194534 -11.541444 -12.824327 -24.318641 1.637666 7.722870 26.745538 0.414421 -0.482630 -2.044103 0.040300 -1.296300 -3.564500 21.616265 10.274953 -24.465918 -2.141821 -8.450637 29.269728 3.229686 -11.458489 -5.246332 -0.068100 -1.683900 4.632900 11.776920 2.241795 5.882357 1.179889 1.608004 -4.247779 0.666921 4.888783 9.081520 0.208500 2.321800 6.081800 -87.425347 -0.380460 24.854724 18.752608 -25.499021 -3.983631 0.153519 0.382967 -2.463589 -7.125000 0.000000 0.000000 76.772977 -0.968863 10.077058 -17.358964 24.791781 -4.042397 0.192806 -0.274231 0.266324 7.125000 0.000000 0.000000 
3.851714 17.931106 2.800019 -30.307898 -84.345237 42.723075 -12.158910 -12.817314 -24.187514 1.618915 7.664789 26.635972 0.320974 -0.177214 -1.813520 0.020800 -0.931700 -2.561000 21.004517 10.138839 -24.483454 -2.098038 -8.434148 29.120541 3.167964 -11.271164 -5.071226 -0.067400 -1.675000 4.608300 11.237441 2.256741 5.781504 1.421021 1.613722 -4.243614 0.530249 4.946866 9.134904 0.149800 2.350200 6.087700 -87.366767 -0.287089 24.874009 18.721721 -25.441646 -3.966558 0.154872 0.382741 -2.498319 -7.125000 0.000000 0.000000 76.793765 -1.044044 10.208956 -17.354853 24.790392 -4.043808 0.191667 -0.278945 0.279604 7.125000 0.000000 0.000000 
3.843725 17.932092 2.802386 -32.025445 -84.332209 44.312605 -12.024517 -12.809222 -23.927638 1.592770 7.627734 26.506682 0.301662 -0.144997 -1.497374 0.001100 -0.214000 -0.588100 21.134782 10.037762 -24.275075 -2.067293 -8.389963 28.988120 3.079856 -11.024733 -4.980571 -0.090200 -1.937300 5.332500 11.370810 2.313321 5.669091 1.363769 1.633185 -4.264545 0.510038 4.931855 9.274370 0.137400 2.343900 6.116300 -87.349790 -0.149096 25.120520 18.683880 -25.389698 -3.952338 0.154714 0.383653 -2.589701 -7.125000 0.000000 0.000000 76.765212 -1.155573 10.308305 -17.372821 24.814775 -4.052145 0.193151 -0.278106 0.213468 7.125000 0.000000 0.000000 
